<svg width="15" height="18" viewBox="0 0 15 18" fill="#fff" xmlns="http://www.w3.org/2000/svg">
<path d="M0 15.468H3.55625C3.91312 16.2264 4.47266 16.8664 5.1704 17.3144C5.86813 17.7623 6.67568 18 7.5 18C8.32432 18 9.13187 17.7623 9.82961 17.3144C10.5273 16.8664 11.0869 16.2264 11.4437 15.468H15V14.1923H14.375V9.08946C14.3754 7.67686 13.958 6.29704 13.1774 5.13052C12.3968 3.964 11.2894 3.0651 10 2.55143C10 1.87475 9.73661 1.22578 9.26777 0.747296C8.79893 0.26881 8.16304 0 7.5 0C6.83696 0 6.20107 0.26881 5.73223 0.747296C5.26339 1.22578 5 1.87475 5 2.55143C3.70713 3.05984 2.59631 3.95745 1.81492 5.12516C1.03354 6.29286 0.618543 7.67545 0.625 9.08946V14.1923H0V15.468ZM7.5 3.9866C8.82608 3.9866 10.0979 4.52422 11.0355 5.48119C11.9732 6.43817 12.5 7.7361 12.5 9.08946H11.25C11.25 8.07444 10.8549 7.10099 10.1517 6.38326C9.44839 5.66553 8.49456 5.26232 7.5 5.26232V3.9866ZM10 15.468C9.70892 15.8641 9.33147 16.1856 8.89754 16.407C8.46362 16.6285 7.98514 16.7437 7.5 16.7437C7.01486 16.7437 6.53638 16.6285 6.10246 16.407C5.66853 16.1856 5.29108 15.8641 5 15.468H10Z" fill="white"/>
</svg>
